<?xml version="1.0" encoding="UTF-8"?>
<!-- Created with Inkscape (http://www.inkscape.org/) -->
<svg width="118.4mm" height="37.72mm" version="1.1" viewBox="0 0 118.4 37.72" xmlns="http://www.w3.org/2000/svg">
 <g transform="translate(-85.958 -36.907)" fill="#fff">
  <g stroke-width=".26458" aria-label="ZEBES">
   <path d="m86.291 37.297h18.159v3.3714l-11.59 14.021h11.923v4.2106h-18.825v-3.3714l11.59-14.021h-11.257z"/>
   <path d="m112.83 37.297h15.034v4.2106h-9.463v4.0225h8.8987v4.2106h-8.8987v4.9485h9.7813v4.2106h-15.352z"/>
   <path d="m145.73 45.66q1.3167 0 1.9968-0.57878 0.68006-0.57878 0.68006-1.7074 0-1.1141-0.68006-1.6929-0.68007-0.59324-1.9968-0.59324h-3.082v4.5723zm0.1881 9.4485q1.6784 0 2.5177-0.709 0.85369-0.709 0.85369-2.1415 0-1.4035-0.83923-2.0981-0.83922-0.709-2.5321-0.709h-3.2701v5.6575zm5.18-7.7701q1.7942 0.5209 2.7781 1.9244 0.98392 1.4035 0.98392 3.4437 0 3.1254-2.1125 4.6591t-6.4244 1.5338h-9.2459v-21.603h8.3633q4.5 0 6.5112 1.3601 2.0257 1.3601 2.0257 4.3553 0 1.5772-0.73794 2.6913-0.73794 1.0997-2.1415 1.635z"/>
   <path d="m163.66 37.297h15.034v4.2106h-9.463v4.0225h8.8987v4.2106h-8.8987v4.9485h9.7813v4.2106h-15.352z"/>
   <path d="m202.94 37.977v4.5723q-1.7797-0.79582-3.4726-1.201t-3.1977-0.40514q-1.9968 0-2.9518 0.54984-0.95498 0.54984-0.95498 1.7074 0 0.86816 0.63666 1.3601 0.65112 0.47749 2.344 0.82476l2.373 0.47749q3.6029 0.72347 5.1222 2.1993 1.5193 1.4759 1.5193 4.1961 0 3.5739-2.127 5.3247-2.1125 1.7363-6.4678 1.7363-2.0546 0-4.1238-0.39067-2.0691-0.39067-4.1382-1.1576v-4.7026q2.0691 1.0997 3.9936 1.664 1.9389 0.54984 3.7331 0.54984 1.8231 0 2.7926-0.60771 0.96945-0.60772 0.96945-1.7363 0-1.0129-0.66559-1.5627-0.65112-0.54984-2.619-0.98392l-2.1559-0.47749q-3.2411-0.69453-4.746-2.2138-1.4903-1.5193-1.4903-4.0948 0-3.2267 2.0836-4.963t5.9903-1.7363q1.7797 0 3.6608 0.27492 1.881 0.26045 3.8923 0.79582z"/>
  </g>
  <path d="m91.342 63.232 107.63-0.098949" stroke="#fff" stroke-width=".26458px"/>
  <path d="m91.342 74.494 107.63-0.098949" stroke="#fff" stroke-width=".26458px"/>
  <g transform="translate(.95144)" stroke-width=".26458">
   <path d="m96.779 70.925v-1.6578h-1.3643v-0.68626h2.1911v2.65q-0.48369 0.34313-1.0666 0.5209-0.58291 0.17363-1.2444 0.17363-1.4469 0-2.2655-0.84336-0.81442-0.84749-0.81442-2.3564 0-1.5131 0.81442-2.3564 0.81856-0.84749 2.2655-0.84749 0.60358 0 1.1452 0.14883 0.5457 0.14883 1.0046 0.43822v0.88884q-0.46302-0.39274-0.98392-0.59118-0.5209-0.19844-1.0955-0.19844-1.1327 0-1.7033 0.63252-0.56637 0.63252-0.56637 1.8852 0 1.2485 0.56637 1.881 0.57051 0.63252 1.7033 0.63252 0.44235 0 0.78962-0.07441 0.34727-0.07855 0.62425-0.23978z"/>
   <path d="m117.37 65.634h0.83923v3.7496q0 0.99219 0.35967 1.4304 0.35967 0.43408 1.1658 0.43408 0.80202 0 1.1617-0.43408 0.35966-0.43822 0.35966-1.4304v-3.7496h0.83923v3.853q0 1.2072-0.59945 1.8231-0.59531 0.61598-1.7611 0.61598-1.17 0-1.7694-0.61598-0.59532-0.61598-0.59532-1.8231z"/>
   <path d="m144.14 65.634h0.83509v6.1722h-0.83509z"/>
   <path d="m167.63 66.32v4.7997h1.0087q1.2774 0 1.8686-0.57878 0.59531-0.57878 0.59531-1.8273 0-1.2402-0.59531-1.8149-0.59118-0.57878-1.8686-0.57878zm-0.83509-0.68626h1.7156q1.7942 0 2.6334 0.74828 0.83922 0.74414 0.83922 2.3316 0 1.5958-0.84336 2.344t-2.6293 0.74828h-1.7156z"/>
   <path d="m192.22 65.634h3.9026v0.7028h-3.0675v1.8273h2.9394v0.7028h-2.9394v2.2366h3.1419v0.7028h-3.977z"/>
  </g>
 </g>
</svg>
