<?xml version="1.0" encoding="UTF-8"?>
<!-- Created with Inkscape (http://www.inkscape.org/) -->
<svg width="66.083mm" height="147.27mm" version="1.1" viewBox="0 0 66.083 147.27" xmlns="http://www.w3.org/2000/svg">
 <g transform="translate(-68.84 -92.284)" stroke="#88e810" stroke-width=".52917">
  <g stroke-linecap="round">
   <rect x="75.615" y="138.8" width="7.56" height="5.2686"/>
   <rect x="73.839" y="118.07" width="12.202" height="8.3318"/>
   <rect transform="scale(-1,1)" x="-130.77" y="118.07" width="12.202" height="8.3318"/>
   <rect x="76.9" y="169.27" width="4.6737" height="3.5622"/>
  </g>
  <path d="m77.145 104.67s-5.6059 1.3175-4.5432 13.89l15.475 0.5039z"/>
  <path d="m87.264 126.31s-2.2374-8.3841-14.269-4.3179c-0.03512 5.3484 1.6995 8.0064 1.6995 8.0064l-0.08138 9.7688 9.6015-0.0451s0.21557-9.3668 3.0495-13.412z"/>
  <rect x="121.65" y="138.8" width="7.2839" height="5.2733" stroke-linecap="round"/>
  <rect x="74.051" y="141.08" width="10.537" height="1.0107" stroke-linecap="round"/>
  <g>
   <path d="m84.169 143.36h-10.32s-5.6749 4.8726 0.40726 13.401c0.01996-0.0592 0.4188 12.973 0.4188 12.973l8.9922 0.1035z"/>
   <path d="m74.7 170.28 2.273 1.8797h4.6133l2.0562-1.8205z"/>
   <path d="m74.658 167.65h8.9198"/>
   <path d="m83.889 161.06h-8.2848"/>
   <path d="m74.427 163.22c-0.02323-0.3188 1.142-2.2154 1.142-2.2154v-6.2726l-1.2244 2.1308"/>
   <path d="m81.96 143.57v5.9836l-1.9916 1.8658v9.683"/>
   <path d="m77.66 143.48v6.2208l2.2727 1.7112"/>
   <path d="m75.529 143.48 0.02005 11.348"/>
   <path d="m83.81 165.42h-9.3902"/>
   <path d="m83.752 163.02h-9.2457"/>
   <path d="m79.981 138.74s-0.07247-2.5578 1.0016-5.4232c1.227-3.2733-1.8498-8.5615-1.8498-8.5615"/>
   <path d="m79.992 121.18s-1.1767 6.7965-5.1722 8.8359"/>
   <path d="m79.714 122.39s5.3498 9.316 3.4307 16.44"/>
   <path d="m127.46 104.67s5.606 1.3175 4.5432 13.89l-15.475 0.5039z"/>
   <path d="m117.34 126.31s2.2374-8.3841 14.269-4.3179c0.0351 5.3484-1.6995 8.0064-1.6995 8.0064l0.0814 9.7688-9.6016-0.0451s-0.21557-9.3668-3.0495-13.412z"/>
   <path d="m124.78 139.9s-0.0791-3.7224-1.1533-6.5878c-1.227-3.2733 2.5876-8.9295 2.5876-8.9295"/>
   <path d="m125.62 121.01s0.9279 7.4524 4.1664 9.0035"/>
   <path d="m122.77 121.27s-3.0934 11.333-1.1743 18.457"/>
   <path d="m128.74 141.39c2.4597 4.0428-1.1757 13.972-1.1757 13.972-1.7421 1.0058-4.2931 0-4.2931 0-2.3162-10.501-2.1534-13.551-2.1534-13.551s0.34331-1.6942 7.6221-0.42097z"/>
   <path d="m123.54 155.73 2.2171 6.2679s-0.28991 4.5953-0.92309 4.8109 2.7318 0.96113 5.0955-3.2628c2.3636-4.2239-2.2706-8.2035-2.2706-8.2035z"/>
   <path d="m123.55 156.32-3.2595 3.9618 1.0718 4.2898s2.2207-0.67054 1.5643-3.5962l0.78521-0.24242"/>
   <path d="m121.89 163.83-1.131 2.4101 4.491 0.65225 4.1904-2.3621-3.7572-3.3623z"/>
   <path d="m127.28 141.18s1.7911 3.1514-0.35845 14.382"/>
   <path d="m122.96 141.28s1.1098 5.1569 2.2202 7.6872c1.1104 2.5303-0.18295 6.5383-0.18295 6.5383"/>
  </g>
 </g>
 <g transform="translate(-68.84 -92.284)" stroke="#88e810" stroke-width=".52917">
  <path d="m85.459 219.18c-0.14478-2.8834 2.4628-29.188 2.4628-29.188l-3.535-2.7198s-0.40384 12.011 1.0722 31.908z"/>
  <path d="m84.968 187.8 0.37034-6.3707 2.9176-5.4934-0.33018 14.013z"/>
  <path d="m94.055 200.27s4.5253-5.2943 4.5253-9.5092c0-4.215-3.559-5.6705-3.559-5.6705l-5.1017 2.5124-0.95679 6.6674z"/>
  <path d="m88.332 176.02-0.40949 13.979 6.968-4.6293v-2.2031z"/>
  <path d="m85.342 219.07 5.9785-0.19204s4.2938-25.522 3.5667-27.13c-0.72708-1.6081-4.2368-3.6551-4.2368-3.6551l-2.6819 1.8159z"/>
  <path d="m97.458 177.13-1.4837 3.2688 0.0085 6.0545-5.8292-2.5657-1.429-5.5677 0.69508-6.2732z"/>
  <path d="m85.933 233.91s-0.62726-5.9309-5.4443-5.9309-7.9042 2.2768-10.917 7.1644c-3.0132 4.8876 9.2713 6.5684 16.362-1.2335z"/>
  <path d="m71.778 232.06s-0.95038 2.7962 1.3772 2.7962 5.2689 0.34554 11.427-4.6966"/>
  <path d="m76.287 228.62 7.301-6.8095 1.9294 1.6591 2.079 0.0769s-0.17981 3.6384-2.7831 7.3012c-2.6033 3.6628-8.5263-2.2277-8.5263-2.2277z"/>
  <path d="m85.95 233.36 2.7063-1.0179 2.9661-6.1996s-1.3694-4.3311-1.3694-7.0614-4.6618-0.30539-4.6618-0.30539l-1.269 4.7911z"/>
  <path d="m87.968 233.12s-0.47964-3.7076 1.0979-6.0952c1.5776-2.3876 3.1652-0.58481 3.1652-0.58481s1.0106 4.124-0.53225 5.6193c-1.5429 1.4952-3.7309 1.0607-3.7309 1.0607z"/>
  <path d="m89.733 146.68s-1.6358 1.4219-1.6529 13.709c-0.01717 12.287 1.012 19.041 5.2179 19.041 4.2059 0 4.8918-1.1732 7.2164-20.614 2.3246-19.441-10.781-12.135-10.781-12.135z"/>
  <path d="m89.034 152.42s-2.4611 2.6497-2.4611 8.2322 3.2423 7.3737 3.2423 7.3737 1.6724-8.6034-0.78125-15.606z"/>
  <path d="m118.3 219.18c0.14478-2.8834-2.4628-29.188-2.4628-29.188l3.535-2.7198s0.40385 12.011-1.0722 31.908z"/>
  <path d="m118.79 187.8-0.37034-6.3707-2.9176-5.4934 0.33018 14.013z"/>
  <path d="m109.71 200.27s-4.5254-5.2943-4.5254-9.5092c0-4.215 3.5591-5.6705 3.5591-5.6705l5.1017 2.5124 0.95681 6.6674z"/>
  <path d="m115.43 176.02 0.40949 13.979-6.9681-4.6293v-2.2031z"/>
  <path d="m118.42 219.07-5.9786-0.19204s-4.2938-25.522-3.5667-27.13c0.7271-1.6081 4.2368-3.6551 4.2368-3.6551l2.6819 1.8159z"/>
  <path d="m106.3 177.13 1.4838 3.2688-8e-3 6.0545 5.8292-2.5657 1.429-5.5677-0.69508-6.2732z"/>
  <path d="m117.83 233.91s0.62726-5.9309 5.4443-5.9309c4.8171 0 7.9042 2.2768 10.917 7.1644 3.0132 4.8876-9.2713 6.5684-16.362-1.2335z"/>
  <path d="m131.98 232.06s0.95038 2.7962-1.3772 2.7962-5.2689 0.34554-11.427-4.6966"/>
  <path d="m127.48 228.62-7.301-6.8095-1.9294 1.6591-2.0791 0.0769s0.17981 3.6384 2.7832 7.3012c2.6033 3.6628 8.5263-2.2277 8.5263-2.2277z"/>
  <path d="m117.81 233.36-2.7063-1.0179-2.9662-6.1996s1.3695-4.3311 1.3695-7.0614 4.6619-0.30539 4.6619-0.30539l1.269 4.7911z"/>
  <path d="m115.79 233.12s0.47964-3.7076-1.0979-6.0952c-1.5776-2.3876-3.1653-0.58481-3.1653-0.58481s-1.0106 4.124 0.53225 5.6193c1.5429 1.4952 3.731 1.0607 3.731 1.0607z"/>
  <path d="m114.03 146.68s1.6358 1.4219 1.6529 13.709c0.0172 12.287-1.012 19.041-5.2179 19.041-4.2059 0-4.8918-1.1732-7.2165-20.614s10.781-12.135 10.781-12.135z"/>
  <path d="m114.73 152.42s2.4611 2.6497 2.4611 8.2322-3.2424 7.3737-3.2424 7.3737-1.6724-8.6034 0.78127-15.606z"/>
 </g>
 <g transform="translate(-68.84 -92.284)">
  <rect x="85.996" y="105.74" width="30.459" height="14.02"/>
  <path d="m111.84 139.47 0.14983-5.0544 2.4616-3.6806 3.0971-10.868-3.989 1.4779-8.46 7.4428 0.27582 9.6113z"/>
  <g stroke="#88e810">
   <path transform="scale(.26458)" d="m351.28 535.71s-9.5459 0.46086-11.533 12.516c0 0 19.394 37.433 41.896 52.029h8.5664c22.503-14.596 41.896-52.029 41.896-52.029-1.9873-12.055-11.533-12.516-11.533-12.516s-24.81 23.111-69.293 0z" stroke-width="2"/>
   <g stroke-width=".52917">
    <path d="m103.28 158.79 3.0355-6.8203-2.2245-2.2394h-4.0504l-2.1104 2.5982 2.9229 6.5295z"/>
    <path d="m100.89 158.81s-2.7967-9.5828-10.703-14.431"/>
    <path d="m103.26 158.83s1.1259-7.0242 11-14.7"/>
    <path d="m86.447 119.56s3.1202 15.006 5.5355 14.941v7.9714l10.217 3.8949 9.6552-4.7206v-7.3276"/>
    <path d="m117.83 119.39s-3.2941 15.374-5.9083 14.939"/>
    <path d="m86.081 119.17s5.1721 12.145 15.639 12.145c10.467 0 16.05-11.869 16.05-11.869"/>
    <path d="m96.125 129.92s0.72907 5.5301 5.9838 5.5301c5.2548 0 5.9013-5.4952 5.9013-5.4952l-3.7692-0.3009-0.27675-1.6927h-3.8986l-0.46174 1.6469z"/>
    <path d="m93.505 128.51 4.646-8.3936-4.7013-4.0178-6.3274 4.933"/>
    <path d="m93.512 110.85-0.04826 5.3151 4.7573 3.9978h8.342l3.781-3.5602v-6.4131"/>
    <path d="m110.5 128.05-3.9432-7.9084 3.783-3.4994 7.0171 3.5082"/>
    <path d="m95.3 129.55s-3.8451 2.7115-3.2253 5.0285"/>
    <path d="m108.66 129.43s3.4591 2.541 3.1468 4.8537"/>
    <path d="m95.961 129.97 2.048 14.765"/>
    <path d="m108.01 130.27-2.103 14.228"/>
   </g>
  </g>
 </g>
 <g transform="translate(-68.84 -92.284)" stroke="#88e810" stroke-width=".52917">
  <path d="m132.43 101.58c-3.1946-4.094-14.708-1.2886-20.311 1.3904 0 0-1.4314 15.323 5.4192 16.174"/>
  <path d="m114.87 104.15s-1.2364-1.2284-0.98152-1.8914c1.1634-3.0266 9.1101-3.41 9.1101-3.41s3.3542 3.5867-0.0437 3.7416c-4.1101 0.18736-8.0849 1.5599-8.0849 1.5599z"/>
  <path d="m131.51 109.21s-0.94807-4.1847-2.9658-2.568-8.6695 11.211-8.6695 11.211-2.0961 2.1945-3.988 0.95646c-1.8919-1.2381 7.365-14.84 11.858-16.926 8.8666-4.1154 3.7648 7.3261 3.7648 7.3261z"/>
  <path d="m133.05 102.15s-2.6252 2.2053-3.7513 1.4912c0 0-2.4966-1.5607-6.2397-1.0518l0.0116-3.7266c5.434-0.02001 8.0682-0.06419 9.9793 3.2872z"/>
  <path d="m72.333 101.58c3.1946-4.094 14.708-1.2886 20.311 1.3904 0 0 1.4313 15.323-5.4191 16.174"/>
  <path d="m89.893 104.15s1.2364-1.2284 0.98151-1.8914c-1.1634-3.0266-9.11-3.41-9.11-3.41s-3.3541 3.5867 0.0437 3.7416c4.11 0.18736 8.0849 1.5599 8.0849 1.5599z"/>
  <path d="m73.247 109.21s0.94806-4.1847 2.9658-2.568c2.0178 1.6167 8.6694 11.211 8.6694 11.211s2.0961 2.1945 3.9879 0.95646c1.8918-1.2381-7.365-14.84-11.858-16.926-8.8665-4.1154-3.7648 7.3261-3.7648 7.3261z"/>
  <path d="m71.709 102.15s2.6252 2.2053 3.7512 1.4912c0 0 2.4965-1.5607 6.2397-1.0518l-0.0116-3.7266c-5.434-0.02001-8.0681-0.06419-9.9793 3.2872z"/>
 </g>
 <g transform="translate(-68.84 -92.284)" stroke="#88e810" stroke-width=".52917">
  <path d="m101.88 116.23c-2.8442 0.0317-10.644-6.1176-13.685-12.422 0 0 0.17437-2.2577 2.5357-2.4817 0 0 2.0751-8.7749 11.081-8.7749 9.0057 0 10.773 9.307 10.773 9.307s2.5893 0.56234 2.5893 2.8714c0 0-9.5776 11.459-13.293 11.501z"/>
  <path d="m94.366 100.95v4.6713s5.2129 6.1316 7.4591 6.1316c2.2463 0 7.5054-6.1049 7.5054-6.1049v-4.8212s-4.6166 4.1182-7.1329 4.1182c-2.5162 0-7.8316-3.995-7.8316-3.995z"/>
  <path d="m96.808 102.51s3.4724-5.4099 5.0855-5.4099 5.1132 5.331 5.1132 5.331"/>
  <path d="m100.91 111.57 0.24582 3.5972 0.61384 0.0896 0.74956-0.0614 0.25667-0.14402 0.18081-3.5237s-0.87363 0.3176-2.0467 0.0423z"/>
  <path d="m102 97.024v-4.4371"/>
 </g>
</svg>
