<?xml version="1.0" encoding="UTF-8"?>
<!-- Created with Inkscape (http://www.inkscape.org/) -->
<svg width="65.696mm" height="147.65mm" version="1.1" viewBox="0 0 65.696 147.65" xmlns="http://www.w3.org/2000/svg">
 <g transform="translate(-69.397 -91.467)">
  <path transform="scale(.26458)" d="m384.8 349.79c-34.037 0-41.879 33.164-41.879 33.164-0.58578 0.0556-1.1356 0.14646-1.6523 0.26368-8.1934-8.4555-32.273-9.6172-32.273-9.6172s-0.12125 0.13001-0.28516 0.31445v-0.25976c-6.7556-0.44605-22.674-2.6674-32.24 7.3047-1.1914 0.86027-2.2422 1.8443-3.1211 2.9707l0.0293 0.0332c-6.226 7.1518 3.4258 28.801 3.4258 28.801s1.9731-8.7002 6.1035-10.701c-5.3147 6.6561-10.714 19.92-8.5078 46.023l4.6777 0.15234v11.807c-1.0449 0.31461-2.1026 0.64638-3.1894 1.0137-0.13274 20.214 6.4219 30.26 6.4219 30.26l-0.30664 36.922 3.7852-0.0176v4.998h-5.9102v3.8203h5.9102v5c-2.2165-0.0645-4.4387-0.13254-6.6699-0.20704 0 0-21.449 18.416 1.5391 50.65 0.0347-0.10291 0.31682 10.566 0.60742 21.855l0.0332 2.4961c2e-3 -0.0565 0.0115-0.12266 0.0273-0.19727 0.22079 8.619 0.32521 12.792 0.43945 17.375h-0.16406s0.1257 0.0149 0.16406 0.0195c0.0513 2.059 0.19531 7.7715 0.19531 7.7715 1.4822 0.28109 2.959 0.52124 4.4316 0.72265l-2.9414 0.0391 7.2598 7.8984v4.75c5.9282 2.9495 11.754 2.2742 17.535 0v-4.5c0.0378-6e-3 0.0754-0.0115 0.11328-0.0176l6.4473-8.5449-0.24024 4e-3c0.55353-0.0809 1.1075-0.16379 1.6602-0.25195l0.14648-7.6836c0.18721-0.017 0.73438-0.0664 0.73438-0.0664l-0.73438-2e-3 0.16993-8.9453c0.11248-0.0103 0.56445-0.0508 0.56445-0.0508l-0.5625-2e-3 0.16601-8.8477c0.0564-5e-3 0.39649-0.0352 0.39649-0.0352l-0.39453-2e-3 1.4102-74.436c-1.2334 0.085-2.4905 0.15419-3.7598 0.21485v-5.0078h5.3398v-3.8203h-5.3398v-5.1328l3.9297-0.0176s0.81461-35.402 11.525-50.691c0 0-1.0958-4.1083-4.6211-8.6484v-16.088h1.1973c0.24816 0.50455 0.5414 1.0824 0.8789 1.7305 2.4039 10.944 12.407 54.181 20.381 53.967v28.369c-2.9232 1.3248-6.7325 4.3994-7.9062 11.52 0 0 0.74482 1.4339 2.084 3.8086-0.37614 0.1502-0.57813 0.24023-0.57813 0.24023s-6.5288 6.0028-10.555 28.367c-2.8739 4.8859-6.1129 12.601-7.1094 23.551-0.90809 9.9781 1.2281 16.988 3.7227 21.6-0.4133 17.982-0.0321 30.015 1.9062 37.824l-10.68 20.109-1.4004 24.078 1.6504 1.6758c-0.82234 9.1455-4.5287 58.169 4.207 118.91l-6.0664 18.59s0.22651 0.26354 0.5625 0.67969l-33.045 22.885-4.4434 0.88477-1.1055 0.043s-7.0846 5.3566-8.5703 9.9726c-0.88961 0.91547-1.6304 1.7787-2.1875 2.5644-10.564 17.136 28.624 23.843 55.742 1.1856 2.9693 0.18189 7.2885-3.3761 9.5977-5.5098 0.01 0.0481 0.0215 0.10351 0.0215 0.10351s5.5866 2.2705 11.418-3.3809c5.5443-4.9239 5.603-17.821 1.3691-21.703l4e-3 -6e-3s-4.9317-15.597-5.166-25.939c1.2655-0.40121 2.6052-0.89482 4.0254-1.502 0.47407-0.51905 6.0946-34.399 10.018-63.141 8.3959-15.725 17.42-34.607 17.42-43.127 0-10.5-5.8421-16.467-9.8262-19.316l-0.0254-19.842 5.6074-12.355-6.9902-4.4199c4.398-10.372 8.9293-29.317 16.236-63.352 0.27647-1.2878 0.52533-2.5376 0.75977-3.7656 0.83906 0.63221 1.6838 1.2347 2.5332 1.8066l0.29297 0.6543 5.3262-0.14844h3.707c0.022-0.0143 0.0444-0.0287 0.0664-0.043-3e-3 0.0201-0.0195 0.0957-0.0195 0.0957l0.125-0.16797c1.3501-0.88338 2.6898-1.847 4.0137-2.8809 0.26939 1.4463 0.55814 2.9188 0.88672 4.4492 7.3071 34.035 11.838 52.98 16.236 63.352l-6.9902 4.4199 5.6094 12.355-0.0273 19.842c-3.9841 2.8496-9.8262 8.8167-9.8262 19.316 0 8.5201 9.0239 27.402 17.42 43.127 3.923 28.741 9.5435 62.622 10.018 63.141 1.4196 0.60685 2.7604 1.1008 4.0254 1.502-0.23429 10.343-5.1641 25.939-5.1641 25.939l4e-3 6e-3c-4.2338 3.8823-4.1752 16.779 1.3691 21.703 5.8314 5.6513 11.416 3.3809 11.416 3.3809s0.0111-0.0556 0.0215-0.10547c2.3092 2.1339 6.6295 5.695 9.5996 5.5117 27.119 22.656 66.306 15.95 55.742-1.1856-0.55703-0.78571-1.298-1.649-2.1875-2.5644-1.4857-4.616-8.5703-9.9726-8.5703-9.9726l-1.1074-0.043-4.4414-0.88477-33.047-22.885c0.33599-0.41615 0.5625-0.67969 0.5625-0.67969l-6.0644-18.586c8.7364-60.746 5.0294-109.77 4.207-118.92l1.6484-1.6758-1.4004-24.078-10.68-20.109c1.9385-7.8094 2.3197-19.844 1.9062-37.828 2.4939-4.6114 4.6306-11.62 3.7226-21.596-0.99661-10.951-4.2352-18.667-7.1094-23.553-4.026-22.363-10.553-28.365-10.553-28.365s-0.52118-0.22739-1.418-0.56054c1.2301-2.1904 1.9024-3.4883 1.9024-3.4883-0.17516-1.0625-0.41248-2.0299-0.69336-2.9199l0.41797-0.55859c-0.15998 0.12437-0.3139 0.24877-0.47266 0.37305-2.2747-6.959-7.4314-8.7746-9.6855-9.2441l1.0879-0.53125v-10.322l0.5039-16.994 0.1875-0.2793c9.804-0.13964 21.879-56.496 21.879-56.496l-1.957 4.9473 0.86133-3.0176c0.56678-1.0727 0.88085-1.7305 0.88085-1.7305l-4.9688-0.043v-1.3438c2.1715 0.69953 4.3348 0.4183 6.2539-0.27148l1.7168-0.0566v18.99c-3.5253 4.5401-4.6211 8.6484-4.6211 8.6484 10.711 15.29 11.525 50.691 11.525 50.691l4.541 0.0215c2e-3 6e-3 2e-3 0.0118 4e-3 0.0176l2e-3 -0.0176 0.21094 2e-3v6.041c-1.8105 0.89343-2.0098 1.8457-2.0098 1.8457s-0.61558 11.527 8.1387 51.217c0 0 1.5623 0.61547 3.8574 1.1035l-2.8496 0.26758c1.7422 2.5258 2.9726 5.1304 3.834 7.7188l-3.7949-5.4766-12.318 14.973 3.9863 15.953c-1.1404 1.6741-2.1585 3.8341-1.2617 5.3887 1.1609 2.0125 16.035 3.6426 16.035 3.6426l10.861-7.707c2.5215-1.3119 4.8088-2.8436 6.4824-4.5996l0.0274-0.0195-8e-3 -2e-3c0.10426-0.10982 0.20727-0.22045 0.30664-0.33203 8.1412-9.142-8.582-31.004-8.582-31.004l-0.32813 0.0312c0.24099-0.66156 12.88-35.533 5.1523-51.402v-7.5117l4.0039 0.0195-0.30859-36.922s6.5565-10.045 6.4238-30.26c-1.0868-0.36729-2.1465-0.69906-3.1914-1.0137v-11.807l4.6777-0.15234c2.2391-26.489-3.353-39.755-8.7422-46.312 4.6686 1.1849 6.8906 10.99 6.8906 10.99s9.6538-21.649 3.4277-28.801l0.0274-0.0332c-0.87883-1.1262-1.9279-2.1105-3.1191-2.9707-9.566-9.972-25.485-7.7507-32.24-7.3047v0.26172c-0.16477-0.18545-0.28515-0.31641-0.28515-0.31641s-29.592 1.4269-34.33 12.635c-0.32057 0.12768-0.63242 0.25644-0.94727 0.38476-2.1475-1.2322-4.0801-1.6543-4.0801-1.6543 1e-5 0-6.6794-35.176-40.717-35.176zm33.256 187.86c-2.278 1.5633-6.0809 3.7817-11.332 5.5391zm54.438 67.74c0.22832 3.2129 0.0966 6.1777-0.0664 8.6894l-0.23437-0.0566-8.543 3.8457c1.2188-2.0766 1.928-5.109 0.95117-9.4629zm-143.02 59.223c0.10147 0.36475 0.20725 0.72107 0.3164 1.0664l-0.10937-0.12695-1.3652 48.627c-0.17906 0.15302-0.33611 0.3129-0.47461 0.48047l-1.1035-0.84765zm113.93 0 2.7363 49.199-1.1035 0.84765c-0.13811-0.16703-0.29424-0.32791-0.47266-0.48047l-1.3652-48.627-0.11133 0.13086c0.10956-0.34646 0.21458-0.7043 0.31641-1.0703zm-90.758 35.652 2.6797 1.1797-12.697 6.2539 10.018-7.0996zm67.592 0v0.33399l10.021 7.1035-12.703-6.2578zm12.879 9.4609 2.2637 1.6055c-0.73909-0.093-1.4312-0.16622-2.0664-0.22266zm-93.352 2e-3 -0.19727 1.3809c-0.63489 0.0564-1.3258 0.12967-2.0644 0.22266zm-55.648 161.26c-0.16952 0.10249-0.33398 0.20563-0.50195 0.30859l-3.5215 0.13672c1.3979-0.24066 2.7385-0.38483 4.0234-0.44531zm204.65 0c1.2847 0.0605 2.6258 0.20473 4.0234 0.44531l-3.5215-0.13672c-0.16798-0.10296-0.33243-0.2061-0.50195-0.30859z" stroke="#88e810" stroke-linecap="round" stroke-width="8.1751"/>
 </g>
 <g transform="translate(-69.397 -91.467)" stroke="#88e810">
  <path d="m76.917 169.29h4.6395v4.0683c-1.5295 0.60171-3.071 0.78038-4.6395 0z" stroke-linecap="round" stroke-width=".56343"/>
  <g stroke-width=".52917">
   <path d="m74.996 170.01 1.9773 2.1514c1.4663 0.25888 3.0048 0.25607 4.6133 0l1.7058-2.2608z"/>
   <path d="m123.55 156.32-3.2595 3.9618 1.0718 4.2898s2.2207-0.67054 1.5643-3.5962l3.0436-1.1628"/>
   <g stroke-linecap="round">
    <rect x="75.615" y="138.8" width="7.56" height="5.2686"/>
    <rect x="73.839" y="118.07" width="12.202" height="8.3318"/>
    <rect transform="scale(-1,1)" x="-130.77" y="118.07" width="12.202" height="8.3318"/>
   </g>
   <path d="m77.145 104.67s-5.6059 1.3175-4.5432 13.89l15.475 0.5039z"/>
   <path d="m87.264 126.31s-2.2374-8.3841-14.269-4.3179c-0.03512 5.3484 1.6995 8.0064 1.6995 8.0064l-0.08138 9.7688 9.6015-0.0451s0.21557-9.3668 3.0495-13.412z"/>
   <rect x="121.65" y="138.8" width="7.2839" height="5.2733" stroke-linecap="round"/>
   <rect x="74.051" y="141.08" width="10.537" height="1.0107" stroke-linecap="round"/>
   <g>
    <path d="m84.169 143.36c-3.1226 0.21517-6.7017 0.1208-10.32 0 0 0-5.6749 4.8726 0.40726 13.401 0.01996-0.0592 0.34476 13.05 0.34476 13.05 3.0914 0.5863 6.102 0.49928 9.0662 0.0264z"/>
    <path d="m83.889 161.06h-8.2848"/>
    <path d="m74.427 163.22c-0.02323-0.3188 1.142-2.2154 1.142-2.2154v-6.2726l-1.2244 2.1308"/>
    <path d="m81.96 143.57v5.9836l-1.9916 1.8658v9.683"/>
    <path d="m77.66 143.48v6.2208l2.2727 1.7112"/>
    <path d="m75.529 143.48 0.02005 11.348"/>
    <path d="m74.506 163.02s2.8983 0.35397 4.546 0.34997c1.5299-4e-3 4.8481-0.3127 4.8481-0.3127"/>
    <path d="m74.506 165.37s2.8983 0.35397 4.546 0.34997c1.5299-4e-3 4.8481-0.3127 4.8481-0.3127"/>
    <path d="m74.506 167.75s2.8983 0.35397 4.546 0.34997c1.5299-4e-3 4.8481-0.3127 4.8481-0.3127"/>
    <path d="m79.612 139.71s0.2971-3.5325 1.3712-6.3978c1.227-3.2733-1.8498-8.5615-1.8498-8.5615"/>
    <path d="m79.992 121.18s-1.1767 6.7965-5.1722 8.8359"/>
    <path d="m79.714 122.39s6.0803 8.6608 3.3107 17.273"/>
    <path d="m127.46 104.67s5.606 1.3175 4.5432 13.89l-15.475 0.5039z"/>
    <path d="m117.34 126.31s2.2374-8.3841 14.269-4.3179c0.0351 5.3484-1.6995 8.0064-1.6995 8.0064l0.0814 9.7688-9.6016-0.0451s-0.21557-9.3668-3.0495-13.412z"/>
    <path d="m124.78 139.9s-0.0791-3.7224-1.1533-6.5878c-1.227-3.2733 2.5876-8.9295 2.5876-8.9295"/>
    <path d="m125.62 121.01s0.9279 7.4524 4.1664 9.0035"/>
    <path d="m122.77 121.27s-3.0934 11.333-1.1743 18.457"/>
    <path d="m128.74 141.39c2.4597 4.0428-1.1757 13.972-1.1757 13.972-1.7421 1.0058-4.2931 0-4.2931 0-2.3162-10.501-2.1534-13.551-2.1534-13.551s0.34331-1.6942 7.6221-0.42097z"/>
    <path d="m123.54 155.73c2.0502 2.9723 1.4304 6.3606 1.3862 7.9224 0 0-1.1431 2.5459-1.7762 2.7615s4.85-0.70117 6.7796-2.868c2.154-2.4188-2.2706-8.2035-2.2706-8.2035z"/>
    <path d="m121.89 163.83s-1.326 1.3298-0.88257 2.0985c0.30716 0.53247 4.2426 0.96381 4.2426 0.96381l4.596-3.2618-4.9148-1.1692z"/>
    <path d="m127.28 141.18s1.7911 3.1514-0.35845 14.382"/>
    <path d="m122.96 141.28s1.1098 5.1569 2.2202 7.6872c1.1104 2.5303-0.18295 6.5383-0.18295 6.5383"/>
   </g>
  </g>
 </g>
 <g transform="translate(-69.397 -91.467)" stroke="#88e810" stroke-width=".52917">
  <path d="m107.03 177.13 1.4838 3.2688-8e-3 6.0545 5.8292-2.5657 1.429-5.5677-0.69509-6.2732z"/>
  <path d="m114.26 208.78s-8.3476-13.801-8.3476-18.016c0-4.215 3.5591-5.6705 3.5591-5.6705l5.1017 2.5124 0.95681 6.6674z"/>
  <path d="m117.18 232.66s-1.1656-5.0971 3.6514-5.0971c4.8171 0 11.208 4.2114 12.71 6.3306 3.0132 4.8876-9.2713 6.5684-16.362-1.2335z"/>
  <path d="m130.7 230.58s4.8106 3.6369 0.63603 4.279c-2.3005 0.35388-5.2689 0.34554-11.427-4.6966"/>
  <path d="m129.23 230.33-9.208-6.3772-1.3147-0.17637-2.079 0.0769s0.23583 4.034 3.658 7.1893c2.9657 2.7344 5.1218-1.5366 10.44-0.41441z"/>
  <path d="m118.91 234.19c-1.1 0.22235-3.0783-1.8544-3.0783-1.8544l-2.9662-6.1996s1.3695-4.3311 1.3695-7.0614 4.6619-0.30539 4.6619-0.30539l1.7373 5.3246s-4.5528 5.1343-1.7242 10.096z"/>
  <path d="m116.25 232.78s0.75012-3.3662-0.82744-5.7538c-3.3148-3.8815-4.4078 2.8929-2.1934 4.8596 1.5429 1.4952 3.0208 0.89413 3.0208 0.89413z"/>
  <path d="m114.2 146.12s3.0975 2.8436 3.5546 15.122c0.51346 13.791 0.10765 17.428-4.0803 17.817-4.188 0.38835-4.9793-0.71646-9.0892-19.86-4.1099-19.143 9.6148-13.079 9.6148-13.079z"/>
  <path d="m115.68 151.88s2.6911 2.4158 3.1971 7.9753-2.5607 7.6372-2.5607 7.6372 1.063-1.3937-0.63643-15.612z"/>
  <path d="m119.03 219.18c-4.038 0.58697-2.4628-29.188-2.4628-29.188l3.535-2.7198s1.4942 14.067-1.0722 31.908z"/>
  <path d="m118.91 218.89s-1.6194 1.756-5.7413-6e-3c-0.2112-0.23124-4.2938-25.522-3.5667-27.13 0.7271-1.6081 4.2368-3.6551 4.2368-3.6551s3.9616 0.0986 4.0697 1.3559c1.5185 17.666-0.12573 29.872-0.12573 29.872z"/>
  <path d="m117.26 176.09 0.38904 13.854-6.4642-4.5816v-2.2031z"/>
  <path d="m120.58 187.27-0.37034-6.3707-2.9176-5.4934 0.8002 14.392z"/>
  <path d="m97.458 177.13-1.4838 3.2688 8e-3 6.0545-5.8292-2.5657-1.429-5.5677 0.69508-6.2732z"/>
  <path d="m90.233 208.78s8.3475-13.801 8.3475-18.016c0-4.215-3.559-5.6705-3.559-5.6705l-5.1017 2.5124-0.95681 6.6674z"/>
  <path d="m87.307 232.66s1.1656-5.0971-3.6514-5.0971c-4.817 0-11.208 4.2114-12.71 6.3306-3.0132 4.8876 9.2713 6.5684 16.362-1.2335z"/>
  <path d="m73.791 230.58s-4.8105 3.6369-0.63603 4.279c2.3005 0.35388 5.2688 0.34554 11.426-4.6966"/>
  <path d="m75.259 230.33 9.2079-6.3772 1.3147-0.17637 2.079 0.0769s-0.23583 4.034-3.658 7.1893c-2.9657 2.7344-5.1217-1.5366-10.44-0.41441z"/>
  <path d="m85.578 234.19c1.1 0.22235 3.0783-1.8544 3.0783-1.8544l2.9662-6.1996s-1.3695-4.3311-1.3695-7.0614-4.6618-0.30539-4.6618-0.30539l-1.7373 5.3246s4.5528 5.1343 1.7242 10.096z"/>
  <path d="m88.239 232.78s-0.75012-3.3662 0.82743-5.7538c3.3148-3.8815 4.4078 2.8929 2.1934 4.8596-1.5429 1.4952-3.0208 0.89413-3.0208 0.89413z"/>
  <path d="m90.289 146.12s-3.0975 2.8436-3.5546 15.122c-0.51346 13.791-0.10765 17.428 4.0803 17.817 4.1879 0.38835 4.9792-0.71646 9.0891-19.86 4.1098-19.143-9.6148-13.079-9.6148-13.079z"/>
  <path d="m88.813 151.88s-2.6911 2.4158-3.1971 7.9753 2.5607 7.6372 2.5607 7.6372-1.063-1.3937 0.63643-15.612z"/>
  <path d="m85.459 219.18c4.038 0.58697 2.4628-29.188 2.4628-29.188l-3.535-2.7198s-1.4941 14.067 1.0722 31.908z"/>
  <path d="m85.58 218.89s1.6194 1.756 5.7413-6e-3c0.2112-0.23124 4.2938-25.522 3.5667-27.13-0.72709-1.6081-4.2368-3.6551-4.2368-3.6551s-3.9616 0.0986-4.0697 1.3559c-1.5185 17.666 0.12573 29.872 0.12573 29.872z"/>
  <path d="m87.228 176.09-0.38904 13.854 6.4641-4.5816v-2.2031z"/>
  <path d="m83.909 187.27 0.37034-6.3707 2.9176-5.4934-0.8002 14.392z"/>
 </g>
 <g transform="translate(-69.397 -91.467)">
  <rect x="85.996" y="105.74" width="30.459" height="14.02"/>
  <path d="m111.84 139.47 0.14983-5.0544 2.4616-3.6806 3.0971-10.868-3.989 1.4779-8.46 7.4428 0.27582 9.6113z"/>
  <g stroke="#88e810">
   <path transform="scale(.26458)" d="m351.28 535.71s-9.5459 0.46086-11.533 12.516c0 0 19.394 37.433 41.896 52.029h8.5664c22.503-14.596 41.896-52.029 41.896-52.029-1.9873-12.055-11.533-12.516-11.533-12.516s-24.81 23.111-69.293 0z" stroke-width="2"/>
   <g stroke-width=".52917">
    <path d="m103.28 158.79 3.0355-6.8203-2.2245-2.2394h-4.0504l-2.1104 2.5982 2.9229 6.5295z"/>
    <path d="m100.89 158.81s-2.7967-9.5828-10.703-14.431"/>
    <path d="m103.26 158.83s1.1259-7.0242 11-14.7"/>
    <path d="m86.447 119.56s3.1202 15.006 5.5355 14.941v7.9714l10.217 3.8949 9.6552-4.7206v-7.3276"/>
    <path d="m117.83 119.39s-3.2941 15.374-5.9083 14.939"/>
    <path d="m86.081 119.17s5.1721 12.145 15.639 12.145c10.467 0 16.05-11.869 16.05-11.869"/>
    <path d="m96.125 129.92s0.72907 5.5301 5.9838 5.5301c5.2548 0 5.9013-5.4952 5.9013-5.4952l-3.7692-0.3009-0.27675-1.6927h-3.8986l-0.46174 1.6469z"/>
    <path d="m93.505 128.51 4.646-8.3936-4.7013-4.0178-6.3274 4.933"/>
    <path d="m93.512 110.85-0.04826 5.3151 4.7573 3.9978h8.342l3.781-3.5602v-6.4131"/>
    <path d="m110.5 128.05-3.9432-7.9084 3.783-3.4994 7.0171 3.5082"/>
    <path d="m95.3 129.55s-3.8451 2.7115-3.2253 5.0285"/>
    <path d="m108.66 129.43s3.4591 2.541 3.1468 4.8537"/>
    <path d="m95.961 129.97 2.048 14.765"/>
    <path d="m108.01 130.27-2.103 14.228"/>
   </g>
  </g>
 </g>
 <g transform="translate(-69.397 -91.467)" stroke="#88e810" stroke-width=".52917">
  <path d="m132.43 101.58c-3.1946-4.094-14.708-1.2886-20.311 1.3904 0 0-1.4314 15.323 5.4192 16.174"/>
  <path d="m114.87 104.15s-1.2364-1.2284-0.98152-1.8914c1.1634-3.0266 9.1101-3.41 9.1101-3.41s3.3542 3.5867-0.0437 3.7416c-4.1101 0.18736-8.0849 1.5599-8.0849 1.5599z"/>
  <path d="m131.51 109.21s-0.94807-4.1847-2.9658-2.568-8.6695 11.211-8.6695 11.211-2.0961 2.1945-3.988 0.95646c-1.8919-1.2381 7.365-14.84 11.858-16.926 8.8666-4.1154 3.7648 7.3261 3.7648 7.3261z"/>
  <path d="m132.75 102.49s-2.3248 1.8666-3.4509 1.1526c0 0-2.4966-1.5607-6.2397-1.0518l0.0116-3.7266c2.099-0.13859 7.5415-0.92523 9.679 3.6259z"/>
  <path d="m72.323 101.58c3.1946-4.094 14.708-1.2886 20.311 1.3904 0 0 1.4313 15.323-5.4191 16.174"/>
  <path d="m89.883 104.15s1.2364-1.2284 0.98151-1.8914c-1.1634-3.0266-9.11-3.41-9.11-3.41s-3.3541 3.5867 0.0437 3.7416c4.11 0.18736 8.0849 1.5599 8.0849 1.5599z"/>
  <path d="m73.238 109.21s0.94806-4.1847 2.9658-2.568c2.0178 1.6167 8.6694 11.211 8.6694 11.211s2.0961 2.1945 3.9879 0.95646c1.8918-1.2381-7.365-14.84-11.858-16.926-8.8665-4.1154-3.7648 7.3261-3.7648 7.3261z"/>
  <path d="m72 102.49s2.3248 1.8666 3.4509 1.1526c0 0 2.4965-1.5607 6.2397-1.0518l-0.0116-3.7266c-2.099-0.13859-7.5414-0.92523-9.6789 3.6259z"/>
 </g>
 <g transform="translate(-69.397 -91.467)" stroke="#88e810" stroke-width=".52917">
  <path d="m101.88 116.23c-2.8442 0.0317-10.644-6.1176-13.685-12.422 0 0 0.17437-2.2577 2.5357-2.4817 0 0 2.0751-8.7749 11.081-8.7749 9.0057 0 10.773 9.307 10.773 9.307s2.5893 0.56234 2.5893 2.8714c0 0-9.5776 11.459-13.293 11.501z"/>
  <path d="m94.366 100.95v4.6713s5.2129 6.1316 7.4591 6.1316c2.2463 0 7.5054-6.1049 7.5054-6.1049v-4.8212s-4.6166 4.1182-7.1329 4.1182c-2.5162 0-7.8316-3.995-7.8316-3.995z"/>
  <path d="m96.808 102.51s3.4724-5.4099 5.0855-5.4099 5.1132 5.331 5.1132 5.331"/>
  <path d="m100.91 111.57 0.24582 3.5972 0.61384 0.0896 0.74956-0.0614 0.25667-0.14402 0.18081-3.5237s-0.87363 0.3176-2.0467 0.0423z"/>
  <path d="m102 97.024v-4.4371"/>
 </g>
</svg>
