<?xml version="1.0" encoding="UTF-8"?>
<!-- Created with Inkscape (http://www.inkscape.org/) -->
<svg width="104.48mm" height="126.73mm" version="1.1" viewBox="0 0 104.48 126.73" xmlns="http://www.w3.org/2000/svg">
 <g transform="translate(-48.39 -86.253)">
  <g fill="#250b06" stroke-linecap="round">
   <g transform="matrix(36.973 0 0 36.973 -3745 -5613.4)">
    <path d="m104.03 154.16c-0.19643-2e-3 -0.38343 0.10226-0.51953 0.25977s-0.22412 0.36972-0.2207 0.5918v2.5762h1.4492v-2.5723c0.034-0.46049-0.32497-0.85149-0.70899-0.85547zm-2e-3 0.12305c0.29746 3e-3 0.61668 0.33277 0.58789 0.72266v2.4591h-1.2031v-2.4551c-3e-3 -0.18755 0.074-0.37195 0.1914-0.50781s0.27356-0.22048 0.42383-0.21875z" color="#000000"/>
    <path d="m103.27 155.36v0.73237h1.4883v-0.73242zm0.13281 0.13086h1.2227v0.46875h-1.2227z" color="#000000"/>
   </g>
   <path d="m129.01 166.83v46.143h19.208l0.57677-1.6601s2.3589-6.9143 3.4644-15.165c1.1055-8.2501 1.3014-18.124-4.6216-24.047-2.5955-2.5955-6.4739-3.505-9.8211-4.1883-3.346-0.684-6.21-0.93911-6.21-0.93911zm4.8383 5.4162c1.0389 0.11092 1.4124 0.11092 3.0318 0.43258 3.0059 0.61375 6.342 1.9374 7.2936 2.8876 3.7701 3.7701 4.2829 12.227 3.2499 19.931-0.91323 6.8108-2.4735 11.353-2.8876 12.637h-10.687z" color="#000000" stroke-width="36.973"/>
   <path d="m72.253 166.83-2.5992 0.14789s-2.8617 0.25881-6.21 0.93911c-3.346 0.684-7.226 1.5935-9.8211 4.1883-5.9223 5.9223-5.7286 15.797-4.6216 24.047 1.1055 8.2505 3.4644 15.165 3.4644 15.165l0.57677 1.6601h19.208zm-4.8383 5.4162v35.89h-10.688c-0.41409-1.283-1.9743-5.8266-2.8876-12.637-1.0352-7.7033-0.52132-16.16 3.2499-19.931 0.9502-0.9502 4.287-2.2738 7.2936-2.8876 1.6194-0.33275 1.9928-0.29578 3.0318-0.43258z" color="#000000" stroke-width="36.973" style="-inkscape-stroke:none"/>
  </g>
 </g>
</svg>
