<?xml version="1.0" encoding="UTF-8"?>
<!-- Created with Inkscape (http://www.inkscape.org/) -->
<svg width="23.977mm" height="23.228mm" version="1.1" viewBox="0 0 23.977 23.228" xmlns="http://www.w3.org/2000/svg">
 <g transform="translate(-92.918 -136.89)">
  <path d="m93.793 159.19s1.0617 0.0551 2.059-0.91498c-0.51183-1.6772 7.2472-6.6558 17.586-6.8354l0.87883 0.91082h1.7854v-2.2857h-0.67925v-3.0727h-0.78779c-2.3771-10.649-13.872-12.893-18.781-2.9663-3.0487 2.7575-1.5003 4.6576-1.5003 4.6576s3.0918 2.4919-0.14587 4.5785c-0.37298 2.4263-0.70952 3.5615-0.41537 5.9283z" color="#000000" fill="#601000" stroke-width="1.565" style="-inkscape-stroke:none"/>
  <path d="m106.33 137.03c-3.6922-0.68591-7.4631 1.2371-9.632 4.1909-0.86524 1.0562-1.3129 2.3806-2.3375 3.3033-0.79824 1.0185-1.5507 2.453-0.97148 3.7368 0.77098 0.56355 1.7374 1.0532 1.3863 2.2396 0.24965 1.1301-0.34707 2.2975-0.45623 3.4521-1.3817 1.3356-1.6271 2.6707-1.2195 5.9932 1.9395 0.066 1.9245 1.1449 5.5916-3.0344 4.2858-3.065 8.9001-4.1579 14.063-4.3156 1.1097 0.38064 2.4317 0.97575 3.5622 0.35909 0.93321-0.8027 0.4665-2.1571 0.45577-3.2162-1.0171-0.65394-0.48336-2.0518-0.89253-3.0243-1.1929-0.79828-1.1425-2.5938-1.9979-3.8254-1.5251-2.903-4.2507-5.3077-7.5517-5.8591zm-2.873 1.5371c3.3794-0.61663 6.8032 1.3046 8.5805 4.1383 1.0166 1.5276 1.6154 3.2895 1.9742 5.0786 0.51936-0.10917 0.7615 0.0589 0.63086 0.59971v2.4726c0.46511-0.0609 0.84851-0.04 0.67969 0.53306 0.0181 0.33638-0.767 0.26571-0.90139-0.052-0.32398-0.24055-0.51504-0.80209-0.99314-0.67038-5.382 0.13131-10.844 1.3811-15.488 4.1717-0.98549 0.70166-2.2399 1.3855-2.6504 2.5823-4e-3 0.72347-1.0718 1.0141-0.74965 0.0607-0.0058-1.3241 0.21982-2.6334 0.42139-3.9376 0.93924-0.66465 1.7652-1.7378 1.4629-2.9572-0.04022-1.065-1.3266-2.2169-1.5678-2.5759-0.45395-1.396 0.67377-2.6326 1.6361-3.4961 1.3415-2.8341 3.7407-5.4216 6.9648-5.9475z" color="#000000" style="-inkscape-stroke:none"/>
  <g>
   <path d="m93.793 159.19s1.0617 0.0551 2.059-0.91498c-0.51183-1.6772 7.2472-6.6558 17.586-6.8354 3.2113 2.5089 3.2442-0.82687 2.2003-1.5235-0.17005-0.67345 0.15391-2.9122-1.0031-2.924-2.3771-10.649-13.872-12.893-18.781-2.9663-3.0487 2.7575-1.5003 4.6576-1.5003 4.6576s3.0918 2.4919-0.14587 4.5785c-0.37298 2.4263-0.70952 3.5615-0.41537 5.9283z" fill="#601000"/>
   <path d="m104.04 137.71c-3.3125 0.26102-6.1178 2.5975-7.6971 5.4163-0.38691 1.0365-1.3876 1.6147-1.8915 2.5835-0.61197 0.98872-0.76794 2.5274 0.25009 3.3094 0.84124 0.81408 0.27398 3.3534-0.51092 4.3857 0 0-0.80579 3.3763-0.39546 5.7938 0.8443-0.0631 2.1019-0.4439 2.1087-1.4212 0.74586-1.3588 2.1991-2.1236 3.4916-2.8802 1.7271-0.92636 0.5498-0.52825 2.4313-1.0698 6.4411-3.4635 7.0748-6.5246 7.8151-9.805 0.33355-1.4384 0.17867-3.125-0.9782-4.17-1.2501-1.2032-2.9673-1.7663-4.6237-2.1425z" fill="#f82b10"/>
   <path d="m103.88 137.71c-1.8901 0.14338-3.4415 0.94196-4.8662 2.1702 7.767-0.55562 6.5188 5.0422 4.7632 9.3986-0.93346 2.2372-9.2153 8.3191-9.3315 8.6893-0.04149 0.13221-0.0056 1.1439-0.0056 1.1439 0.1299-0.0412 0.42116-0.0772 0.71759-0.2231 0.24049-0.11836 0.7506-0.44212 1.3982-1.4292 1.92-1.2793 4.3839-3.7837 4.9151-3.9027 2.9763-0.66661 5.3746-3.2841 6.8291-6.0538 0.71464-1.3961 1.1428-2.9356 1.3663-4.4821 0.12633-1.5608-0.69149-3.0916-1.9768-3.9578-1.178-0.86086-2.4031-1.0324-3.8095-1.3535z" fill="#cd2300"/>
  </g>
  <path d="m109.63 149.32c5.2441-4.8564 0.0233-11.008-6.2228-11.916 0.18151 0.0578 0.044 0.19342 0.22917 0.23988 2.9039 0.72858 4.1258 1.6552 5.1881 3.0747 0.77058 1.0162 0.94384 2.3995 0.53687 3.5977-0.39236 1.883-0.42732 3.303-1.6669 4.8188-0.9758 1.2284 1.5637 1.5981-9.634 7.7286-1.3097 0.717-3.1801-0.71146-1.9304-2.6698 4.4978-2.2044 5.7404-4.2756 6.4485-6.3036 1.3477-3.8597 6.4804 2.3506 7.0514 1.4293z" color="#000000" style="-inkscape-stroke:none"/>
  <g fill="#cd2300">
   <path d="m114.61 147.63c-0.37155-0.0373-0.65911 0.81338-0.0897 0.8677 0.52107 0.0497 0.81879-0.79445 0.0897-0.8677z"/>
   <path d="m114.61 149c-0.37155-0.0373-0.65911 0.81338-0.0897 0.8677 0.52107 0.0497 0.81879-0.79446 0.0897-0.8677z"/>
   <path d="m114.61 150.36c-0.37155-0.0373-0.65911 0.81338-0.0897 0.86771 0.52107 0.0497 0.81879-0.79446 0.0897-0.86771z"/>
  </g>
  <path d="m114.51 152.46s-1.026-0.49767-0.76766-2.6273c0.16538-1.3632-0.15938-2.0446-0.15938-2.0446s-0.36476 2.5507-0.45493 2.8262c-0.0902 0.27542-0.42177 0.83564-0.75993 0.96434-0.017 0.14852 2.1419 0.88139 2.1419 0.88139z"/>
  <path d="m93.712 156.13 0.89901-0.58568s0.10389-2.2688 0.54912-2.5713c0.44523-0.3025-1.0112 0.41399-1.0112 0.41399z" fill="#747274"/>
  <path d="m95.241 152.83c-0.16983 0.0321-0.32204 0.12306-0.48038 0.18926-0.22788 0.10544-0.45461 0.21341-0.67978 0.3245l-0.49902 3.8412c0.21339-0.49321 1.0146-1.211 1.3479-1.4637 0.04383-0.55598 0.09482-1.7746 0.26046-2.3091 0.066-0.18581 0.21883-0.53023 0.39578-0.63926 0.22579-0.15704-0.24085 0.0659-0.34497 0.0571zm-0.1994 0.14235c-0.24126 0.27946-0.45867 1.8792-0.50891 2.5541l-0.83286 0.60249 0.51774-2.6837c0.0057 3e-3 0.5492-0.35919 0.82404-0.47289z" color="#000000" style="-inkscape-stroke:none"/>
  <g>
   <path d="m96.357 144.18c-0.01961 0.0705 0.39466 0.8409 1.3533 0.76029 0 0-1.2646-0.21847-0.84978-1.1746z"/>
   <path d="m94.08 148.26s1.6294-0.0671 2.0803-0.48631c0.45091-0.41922 1.0834-0.83186 1.9848-2.5168 0.10223-0.0848 0.29593-0.79021 1.4894-1.0849l-1.4528 2.0493-1.3895 1.6398-0.95071 0.63516-1.487 0.14042-0.13402-0.1196z" fill="#601000"/>
   <path d="m94.34 148.64s1.6116 0.0768 2.3468-0.71181c0.73525-0.78857 2.8661-3.4412 2.8661-3.4412v3.5245s-2.3131 4.4382-5.2548 5.2264z" fill="#109626" stroke="#000" stroke-width=".26458px"/>
   <path d="m94.314 153.02c6.67e-4 -2.3e-4 0.0014-2.8e-4 0.0021-5.2e-4 0.03613-0.0126 0.07197-0.0253 0.10749-0.0387 0.03552-0.0135 0.07103-0.0276 0.10594-0.0419 0.03491-0.0142 0.06957-0.029 0.10387-0.0439 0.0343-0.015 0.06811-0.0303 0.1018-0.046 0.03369-0.0157 0.06716-0.0312 0.10025-0.0475s0.0657-0.0332 0.09819-0.0501c0.03249-0.017 0.06474-0.0341 0.09663-0.0517 0.0319-0.0176 0.06378-0.0356 0.09509-0.0537 0.0313-0.0181 0.0623-0.0366 0.09302-0.0553 0.03071-0.0187 0.06083-0.0377 0.09095-0.0568 0.03013-0.0192 0.05986-0.0387 0.0894-0.0584 0.02954-0.0196 0.05889-0.0394 0.08785-0.0594 0.02896-0.0201 0.05791-0.0405 0.0863-0.061s0.05642-0.0412 0.08423-0.062 0.05544-0.0419 0.08268-0.0631 0.05394-0.0421 0.08062-0.0636c0.02667-0.0215 0.05296-0.0434 0.07906-0.0651 0.02611-0.0217 0.05197-0.0437 0.07752-0.0656 0.02555-0.022 0.05097-0.044 0.07596-0.0661 0.02499-0.0222 0.04946-0.0444 0.0739-0.0667s0.04898-0.0447 0.07286-0.0672c0.02388-0.0224 0.04746-0.0446 0.0708-0.0672 0.02334-0.0225 0.04646-0.0451 0.06925-0.0677s0.04493-0.0456 0.06718-0.0682c0.04449-0.0452 0.08788-0.0903 0.13022-0.13539 0.04234-0.0451 0.08381-0.0901 0.12402-0.13488 0.04022-0.0448 0.07919-0.0892 0.11731-0.13332 0.03812-0.0441 0.07558-0.0881 0.11162-0.13126 0.03605-0.0432 0.07091-0.0856 0.1049-0.12764 0.034-0.042 0.06673-0.0835 0.0987-0.12402 0.03197-0.0405 0.06305-0.08 0.09302-0.11886 0.05994-0.0776 0.11585-0.1516 0.16795-0.22066 0.0521-0.0691 0.10024-0.1334 0.14469-0.19172 0.02223-0.0292 0.04373-0.0566 0.06408-0.0827s0.03989-0.0507 0.05839-0.0734c0.01851-0.0227 0.03603-0.0435 0.05271-0.0625 0.01668-0.0191 0.03266-0.0365 0.04754-0.0517 0.0074-8e-3 0.0147-0.0146 0.0217-0.0212 7e-3 -7e-3 0.0136-0.0126 0.02015-0.0181 0.0066-5e-3 0.013-0.0106 0.01912-0.015 0.0061-4e-3 0.01189-8e-3 0.01757-0.0114 0.0057-3e-3 0.01115-7e-3 0.01654-0.0109 0.0054-4e-3 0.01041-9e-3 0.0155-0.0134 0.0051-5e-3 0.01018-0.01 0.01499-0.015 0.0048-5e-3 0.0094-0.0114 0.01395-0.0176 0.0045-6e-3 0.0092-0.0128 0.01344-0.0196 0.0042-7e-3 0.0079-0.0137 0.01189-0.0212 4e-3 -7e-3 0.0082-0.0152 0.01189-0.0233 0.0037-8e-3 0.0074-0.0166 0.01085-0.0253 0.0034-9e-3 0.0066-0.0176 0.0098-0.0269 0.0032-9e-3 0.0064-0.0186 0.0093-0.0284 0.0059-0.0196 0.0111-0.0403 0.01602-0.062 0.0049-0.0217 0.0094-0.0447 0.01344-0.0682 4e-3 -0.0236 0.0077-0.0476 0.01085-0.0729 0.0031-0.0252 0.0054-0.0518 0.0078-0.0786 0.0023-0.0268 0.0042-0.0541 0.0057-0.0822s0.0028-0.0565 0.0036-0.0858c7.99e-4 -0.0292 0.0014-0.0592 0.0016-0.0894 1.11e-4 -0.0302 1.3e-5 -0.061-5.19e-4 -0.092-5.29e-4 -0.031-0.0015-0.0625-0.0026-0.0941s-0.0025-0.0631-0.0041-0.0951c-0.0017-0.032-4e-3 -0.0644-0.0062-0.0966s-0.0046-0.0643-0.0072-0.0966-0.0052-0.065-0.0083-0.0971c-0.0061-0.0643-0.01317-0.12801-0.02067-0.19069-0.0075-0.0627-0.01577-0.12387-0.02429-0.18345-0.0085-0.0596-0.01718-0.11759-0.02635-0.1726-0.0092-0.055-0.01844-0.10709-0.02791-0.15606-0.0095-0.049-0.01902-0.0944-0.02842-0.13591-0.0047-0.0207-0.0093-0.0408-0.01395-0.0594-0.0046-0.0186-0.0095-0.0359-0.01395-0.0522-0.0045-0.0163-0.0086-0.0312-0.01292-0.045-0.0043-0.0137-0.0088-0.0262-0.01292-0.0372-1e-3 -3e-3 -2e-3 -6e-3 -0.0036-8e-3 -0.0016-3e-3 -0.0035-6e-3 -0.0057-8e-3 -0.0043-5e-3 -0.0096-0.0103-0.01602-0.0155-0.0064-5e-3 -0.01422-0.0104-0.02274-0.0155-0.0085-5e-3 -0.01789-0.0101-0.02842-0.015-0.01053-5e-3 -0.02215-0.01-0.03462-0.0145-0.01247-5e-3 -0.02597-0.01-0.04031-0.0145-0.01434-5e-3 -0.02934-9e-3 -0.04548-0.0134-0.01614-5e-3 -0.03329-9e-3 -0.05116-0.0134-0.01786-4e-3 -0.03629-9e-3 -0.05581-0.0129-0.01952-4e-3 -0.03987-8e-3 -0.06098-0.0124-0.04221-8e-3 -0.0878-0.0161-0.13591-0.0238-0.03604-6e-3 -0.07514-0.0111-0.11421-0.0165-0.18049 0.21015-0.34119 0.39289-0.46199 0.52245-0.73524 0.78861-2.3471 0.7121-2.3471 0.7121z" fill="#1be73d"/>
  </g>
  <path d="m99.685 144.11c-1.0234 1.2688-2.0379 2.5469-3.1256 3.7615-0.57191 0.5256-1.3986 0.62757-2.1437 0.63862-0.19892-0.0636-0.23466 0.0411-0.20805 0.2155-0.01406 1.5616-0.02813 3.1233-0.04219 4.685 1.5208-0.36787 2.7116-1.4908 3.6908-2.6552 0.69366-0.84282 1.3124-1.75 1.8287-2.7119zm-0.68626 1.3635-0.0041 3.0766c-0.86891 1.5577-1.5097 2.4698-2.9277 3.5736-0.49528 0.37691-1.0395 0.70014-1.634 0.89263l0.03711-4.2539c0.78084 6e-3 1.6323-0.13302 2.2367-0.66619 0.95665-1.0576 1.5694-1.7582 2.292-2.6226z" color="#000000" style="-inkscape-stroke:none"/>
  <g>
   <circle cx="94.919" cy="149.36" r=".35603" fill="#fff"/>
   <circle cx="95.553" cy="149" r=".12492" fill="#fff"/>
   <path d="m109.81 151.66s2.629 0.46004 3.0493-2.0688c0.80553-4.8466-1.671-5.6028-2.0872-5.8617-0.41629-0.25888-1.4852-0.53015-1.4852-0.53015z" fill="#991a00"/>
   <path d="m108.67 143.13c3.1462 0 3.5759 2.6757 3.5759 4.3945 0 1.7188-1.1112 4.1823-2.4146 4.1823s-5.0105-2.2808-5.0105-3.8643 1.2033-4.7125 3.8493-4.7125z" fill="#601000" stroke="#000" stroke-width=".26458px"/>
   <path d="m106.43 147.31c0.80971 0.68366 0.0117 1.717 0.99756 2.1327 0.34306 0.15017 0.74539 0.1835 1.0843 2e-3 0.8697-0.42516 1.5501-1.1765 2.0177-2.0135 0.47478-0.85337 0.65545-1.9311 0.23317-2.8421-0.2682-0.60335-0.74477-1.0905-1.2778-1.4686-0.85139-0.15895-1.779-0.0706-2.5132 0.41886-1.0864 0.71061-1.7297 1.9338-2.0325 3.1674-0.0648 0.32215 1.504 0.32413 1.4908 0.60327z" fill="#f82b10"/>
  </g>
  <path d="m108.67 143.13c3.1462 0 3.5759 2.6757 3.5759 4.3945 0 1.7188-1.1112 4.1823-2.4146 4.1823s-5.0105-2.2808-5.0105-3.8643 1.2033-4.7125 3.8493-4.7125z" fill="none" stroke="#000" stroke-width=".26458px"/>
  <path d="m109.14 144.03c-0.57688-1e-3 -1.1997 0.0981-1.5896 0.45579-0.40131 0.36815-0.83576 1.4099-0.95291 2.497l-0.11934 0.47454c0.0255 0.63258 0.0487 1.7792 0.9596 2.2178 0.20665 0.15295 0.456 0.26935 0.75344 0.33952 0.0359 0.015 0.0615 0.0258 0.0615 0.0258l-5e-3 -0.0129c2.6015 0.54394 3.49-4.6052 2.2996-5.8276 0 0-0.66597-0.16824-1.4077-0.17002z" fill="#cd2300"/>
  <path d="m104.69 147.8s1.696 0.32619 1.9885-0.89374c0.29257-1.2199-1.4159-0.90174-1.4159-0.90174z" fill-opacity=".9986" stroke="#000" stroke-width=".26458px"/>
  <path d="m97.605 154.13s-1.195 0.1705-1.195 1.1166c0 0.94608 0.7733 1.2263 1.256 1.2263 0.10022 0 0.93831-0.20609 0.98575-1.0302 1.485-1.086 4.3261-3.2467 4.8866-4.3987 0.4256-0.87465-0.0996-2.4681 0.47108-3.0758 0.62541-0.66607 1.6762 0.1421 2.2436-1.4344 0 0-2.0567-0.65441-3.1934 0.11956-0.92587 0.63043-0.34179 2.2074-1.1107 3.5251-1.14 1.9538-2.3578 3.0186-4.344 3.9515z" fill="#5d7199" stroke="#3b3b3b" stroke-width=".26458px"/>
  <g fill="#d4cdf8">
   <path d="m103.11 150.42c-0.30912-0.13291-0.70061-0.0167-0.88523 0.2661-0.20472 0.28802-0.15661 0.719 0.10749 0.9541 0.85517 0.59538 1.6568-0.85748 0.77774-1.2202z"/>
   <path d="m103.61 148.81c-0.30912-0.13291-0.70061-0.0167-0.88523 0.2661-0.20472 0.28802-0.15662 0.719 0.10749 0.9541 0.59036 0.41102 0.94992-0.12683 0.9539-0.63557 2e-3 -0.22818 0.096-0.47231-0.17616-0.58463z"/>
   <path d="m101.95 151.79c-0.35766-0.0862-0.7539 0.14729-0.85369 0.5017-0.11888 0.35408 0.0837 0.77378 0.43409 0.9024 0.61913-0.4372 1.4488-1.034 0.4196-1.4041z"/>
   <path d="m100.58 153.06c-0.33498-0.0722-0.70521 0.12575-0.82641 0.44749-0.13963 0.33224 0.0096 0.76295 0.33813 0.92021 0.61571-0.46367 1.5249-1.1439 0.48828-1.3677z"/>
   <path d="m99.619 154.88c-0.13962 0.12254-0.0642-0.49642-0.36951-0.69885-0.27568-0.19721-0.68747-0.1675-0.92893 0.072-0.256 0.23828-0.30272 0.66694-0.09651 0.95138 0.16932 0.24703 0.33526 0.3386 0.62455 0.23946 0.27876-0.0962 1.043-1.0746 0.7704-0.564z"/>
  </g>
  <path d="m97.605 154.13s-1.195 0.1705-1.195 1.1166c0 0.94608 0.7733 1.2263 1.256 1.2263 0.10022 0 0.93831-0.20609 0.98575-1.0302 1.485-1.086 4.3261-3.2467 4.8866-4.3987 0.4256-0.87465-0.0996-2.4681 0.47108-3.0758 0.86287-1.1074 0.19178-2.0601-0.94977-1.3149-0.92587 0.63043-0.34179 2.2074-1.1107 3.5251-1.14 1.9538-2.3578 3.0186-4.344 3.9515z" fill="none" stroke="#3b3b3b" stroke-width=".26458px"/>
  <g>
   <path d="m97.599 156.47-0.72176-0.18894-0.43842-0.63008 0.16742-0.86848 0.24738-0.37005 0.60506-0.2186 0.28032-0.0401s0.07177 0.82046 0.18327 0.95184c0.1115 0.13139 0.63921 0.32336 0.63921 0.32336l0.05028 0.23958s-0.25931 0.51778-0.30246 0.55411c-0.04315 0.0363-0.71029 0.24737-0.71029 0.24737z" fill="#3b3b3b"/>
   <path d="m99.357 155.24c-1.1074-0.0942-1.8443-0.28353-0.94699-1.8184 0.07201-0.12317-0.39925 0.39961-0.34259 0.21783 0 0-0.94412 1.0293-0.54301 1.5116 0.8222 0.98869 1.8326 0.089 1.8326 0.089z"/>
   <path d="m103.81 148.18c0.37092-0.39319 1.1857-0.54533 1.1857-0.54533l0.70648-0.22044 0.41654-0.57425 0.11833-0.31441s-0.8426-0.20918-1.0241-0.20918h-0.81769l-1.1521 0.23939c0.57897 0.0134-0.84468 0.15125-0.62079 0.60509-0.049 0.0501-0.11513 0.86029-0.11513 0.86029s0.29838 0.37241 1.3027 0.15884z" fill="#3b3b3b"/>
   <path d="m102.38 147.7s1.2637 0.38921 2.0444 0.20067l-0.24203 0.2423s-1.3262 0.3165-1.8617-0.11751z" fill="#010101"/>
  </g>
 </g>
</svg>
