<?xml version="1.0" standalone="no"?>
<!DOCTYPE svg PUBLIC "-//W3C//DTD SVG 20010904//EN"
 "http://www.w3.org/TR/2001/REC-SVG-20010904/DTD/svg10.dtd">
<svg version="1.0" xmlns="http://www.w3.org/2000/svg"
 width="728.000000pt" height="728.000000pt" viewBox="0 0 728.000000 728.000000"
 preserveAspectRatio="xMidYMid meet">
<metadata>
Created by potrace 1.14, written by Peter Selinger 2001-2017
</metadata>
<g transform="translate(0.000000,728.000000) scale(0.100000,-0.100000)"
fill="#000000" stroke="none">
<path d="M3429 7156 c-2 -2 -35 -7 -74 -10 -38 -3 -79 -7 -90 -9 -11 -3 -42
-8 -68 -11 -27 -4 -59 -10 -70 -13 -12 -2 -35 -6 -52 -8 -32 -4 -122 -26 -176
-43 -19 -6 -45 -13 -59 -16 -32 -6 -221 -73 -325 -116 -92 -38 -300 -144 -395
-202 -36 -21 -74 -44 -85 -51 -11 -7 -36 -24 -56 -39 -20 -16 -40 -28 -43 -28
-4 0 -12 -4 -19 -10 -7 -5 -46 -36 -87 -67 -41 -32 -76 -61 -78 -65 -2 -4 -8
-8 -14 -8 -6 0 -18 -8 -27 -17 -9 -10 -45 -43 -81 -73 -108 -91 -302 -293
-381 -395 -13 -16 -32 -39 -42 -50 -10 -11 -27 -35 -38 -52 -12 -18 -25 -33
-30 -33 -5 0 -9 -6 -9 -12 0 -7 -13 -27 -28 -43 -16 -17 -31 -35 -33 -40 -2
-6 -39 -63 -82 -127 -42 -64 -77 -119 -77 -122 0 -3 -16 -30 -35 -60 -19 -30
-35 -57 -35 -60 0 -9 -148 -236 -204 -311 -28 -38 -87 -107 -131 -153 -105
-110 -189 -227 -272 -382 -46 -84 -92 -192 -90 -210 0 -3 -5 -15 -12 -28 -15
-28 -20 -50 -40 -167 -13 -78 -7 -237 12 -297 8 -27 13 -48 11 -48 -3 0 4 -17
15 -37 18 -36 69 -83 90 -83 5 0 11 -7 15 -15 3 -8 12 -15 20 -15 8 0 16 -3
18 -7 1 -5 29 -27 60 -50 l57 -43 -4 -472 c-2 -260 -5 -564 -5 -675 -1 -162
-4 -204 -15 -211 -8 -4 -17 -31 -20 -62 -3 -30 -8 -66 -10 -80 -2 -14 -7 -52
-10 -85 -9 -81 -8 -77 -28 -100 -36 -40 -137 -197 -163 -253 -56 -123 -93
-245 -110 -362 -15 -112 -18 -173 -18 -370 0 -124 4 -258 7 -298 14 -147 18
-188 23 -227 2 -22 7 -67 10 -100 3 -33 9 -63 12 -67 4 -3 39 -9 77 -13 105
-9 142 -13 230 -29 258 -45 417 8 687 232 112 93 326 309 528 532 41 45 85 93
97 106 13 13 23 26 23 28 0 12 96 96 109 96 5 0 11 3 13 8 5 10 156 112 167
112 6 0 14 6 18 12 4 7 19 20 33 27 75 44 176 106 180 111 3 4 12 10 20 13 8
4 33 18 55 30 243 141 533 284 790 389 66 27 134 55 150 62 17 7 66 25 110 40
44 15 89 32 100 36 11 5 81 28 155 50 166 51 160 50 163 49 1 0 14 4 30 10 15
6 38 13 50 15 12 3 79 21 149 40 69 19 129 32 132 28 3 -3 6 0 6 7 0 7 4 10 8
7 5 -3 24 -1 43 4 19 5 45 11 59 13 14 3 43 10 65 15 22 6 56 13 76 16 20 3
42 8 50 10 13 5 63 14 116 21 12 2 36 6 55 10 18 4 44 9 58 11 14 1 34 5 45 7
11 3 47 8 80 12 32 3 62 8 66 11 4 2 33 6 65 10 33 3 70 7 84 9 53 7 136 17
170 20 19 2 62 6 95 10 84 8 126 12 235 20 193 14 217 15 305 19 218 10 212
11 340 -34 133 -47 202 -70 225 -75 8 -2 16 -4 18 -5 1 -2 7 -4 12 -5 6 -1 11
-3 13 -4 1 -2 13 -5 27 -8 39 -7 55 -11 55 -13 0 -2 8 -3 110 -22 202 -38 441
6 531 99 62 64 120 173 127 242 2 15 6 32 10 37 7 12 1 332 -7 383 -8 47 -18
165 -20 226 -1 42 -6 54 -31 75 -73 61 -137 161 -149 232 -3 15 -7 32 -10 37
-6 9 -13 70 -21 181 -5 74 -16 241 -18 283 -1 15 -5 27 -8 27 -3 0 -5 10 -4
23 1 12 -1 27 -5 32 -4 6 -11 24 -14 41 -5 21 -28 50 -72 89 -36 31 -82 80
-102 109 -36 50 -43 61 -81 130 -22 39 -87 200 -113 281 -10 33 -22 67 -25 75
-3 8 -7 20 -8 25 -18 75 -141 374 -158 386 -5 3 -8 10 -8 15 0 5 -17 37 -39
70 -22 34 -43 70 -47 80 -4 11 -31 59 -60 107 -29 48 -53 92 -53 97 0 6 -3 10
-7 10 -5 0 -26 29 -48 65 -22 36 -43 65 -47 65 -4 0 -8 5 -8 10 0 6 -5 16 -10
23 -6 7 -38 48 -71 92 -130 171 -170 216 -339 385 -136 135 -210 204 -210 196
0 -2 -13 8 -28 22 -34 33 -43 40 -157 123 -131 95 -294 195 -425 260 -115 57
-205 99 -213 99 -3 0 -21 7 -41 15 -20 8 -37 15 -38 14 -2 -1 -21 6 -43 16
-64 27 -189 64 -300 90 -68 16 -115 25 -150 31 -72 11 -79 12 -130 19 -27 3
-61 9 -75 12 -30 6 -445 14 -451 9z"/>
</g>
</svg>
